<?xml version="1.0" standalone="no"?>
<!DOCTYPE svg PUBLIC "-//W3C//DTD SVG 20010904//EN"
 "http://www.w3.org/TR/2001/REC-SVG-20010904/DTD/svg10.dtd">
<svg version="1.0" xmlns="http://www.w3.org/2000/svg"
 width="700.000000pt" height="700.000000pt" viewBox="0 0 700.000000 700.000000"
 preserveAspectRatio="xMidYMid meet">
<metadata>
Created by potrace 1.14, written by Peter Selinger 2001-2017
</metadata>
<g transform="translate(0.000000,700.000000) scale(0.100000,-0.100000)"
fill="#000000" stroke="none">
<path d="M0 3500 l0 -3500 3500 0 3500 0 0 3500 0 3500 -3500 0 -3500 0 0
-3500z m3309 1106 c66 -35 112 -120 97 -179 -19 -79 -112 -144 -187 -132 -57
10 -124 76 -134 132 -20 123 118 233 224 179z m-769 -33 c0 -5 23 -102 50
-218 112 -469 134 -562 201 -850 38 -165 72 -308 75 -317 5 -17 -5 -18 -125
-18 -153 0 -162 5 -180 92 -6 29 -19 94 -29 143 l-18 90 -254 0 -254 0 -58
-135 c-38 -89 -68 -144 -88 -162 -30 -28 -33 -28 -160 -28 l-129 0 53 113 c53
111 179 374 434 903 71 148 144 298 161 332 l31 62 145 0 c80 0 145 -3 145 -7z
m1553 -398 c80 -21 131 -49 179 -98 155 -159 152 -480 -6 -702 -208 -290 -617
-301 -759 -19 -71 140 -61 345 25 524 107 223 349 350 561 295z m-737 -42 c-6
-40 -58 -450 -101 -808 -14 -115 -30 -228 -36 -250 -38 -141 -138 -232 -280
-254 -61 -10 -161 -3 -176 13 -9 9 15 146 29 163 6 7 25 13 43 13 52 0 94 20
111 52 16 31 37 185 110 796 l37 312 134 0 135 0 -6 -37z m1378 18 c17 -18 81
-280 124 -503 9 -49 19 -88 22 -88 4 0 71 143 235 502 48 105 56 109 198 106
l115 -3 -246 -480 c-379 -737 -417 -808 -443 -827 -21 -16 -41 -18 -136 -16
l-112 3 85 155 c47 85 97 176 111 202 l26 48 -125 460 -125 460 127 0 c113 0
129 -2 144 -19z"/>
<path d="M2226 4014 c-70 -168 -126 -307 -124 -310 3 -2 88 -3 190 -2 l184 3
-37 200 c-21 110 -45 248 -55 308 -10 59 -21 107 -24 107 -3 0 -63 -138 -134
-306z"/>
<path d="M3892 3963 c-98 -48 -162 -200 -162 -383 0 -174 60 -245 185 -218
123 26 218 232 201 436 -11 132 -49 182 -140 182 -28 0 -66 -8 -84 -17z"/>
</g>
</svg>
