<svg width="40" height="32" viewBox="0 0 40 32" fill="none" xmlns="http://www.w3.org/2000/svg">
<path d="M2 15.9927C12.3097 16.4746 20.4414 5.44864 32.315 5M6.68504 27.9847C16.9948 28.4666 25.1265 17.4406 37 16.992" stroke="#0D41E1" stroke-width="7"/>
<path d="M9.48 14.51L8.62 9.92C8.57333 9.68 8.52 9.39667 8.46 9.07C8.4 8.74333 8.34333 8.39 8.29 8.01C8.14333 8.39 8 8.74333 7.86 9.07C7.72 9.39667 7.59667 9.68333 7.49 9.93L5.52 14.51H9.48ZM13.5 20H11.26C11.0067 20 10.81 19.94 10.67 19.82C10.53 19.7 10.4333 19.5433 10.38 19.35L9.85 16.52H4.66L3.44 19.35C3.35333 19.5233 3.22 19.6767 3.04 19.81C2.86 19.9367 2.65333 20 2.42 20H0.14L7.12 5.49H10.08L13.5 20ZM18.5045 9.69L17.2245 20.2C17.1645 20.6667 17.0479 21.1033 16.8745 21.51C16.7012 21.9233 16.4645 22.2833 16.1645 22.59C15.8645 22.8967 15.5012 23.14 15.0745 23.32C14.6479 23.5 14.1579 23.59 13.6045 23.59C13.3245 23.59 13.0879 23.5733 12.8945 23.54C12.6945 23.5067 12.4979 23.46 12.3045 23.4L12.5645 21.94C12.5979 21.8067 12.6612 21.7133 12.7545 21.66C12.8412 21.6067 12.9945 21.58 13.2145 21.58C13.4345 21.58 13.6212 21.5567 13.7745 21.51C13.9212 21.47 14.0445 21.3967 14.1445 21.29C14.2445 21.1833 14.3245 21.04 14.3845 20.86C14.4445 20.6867 14.4912 20.4667 14.5245 20.2L15.8045 9.69H18.5045ZM19.0145 6.76C19.0145 6.99333 18.9645 7.21 18.8645 7.41C18.7712 7.61 18.6445 7.78667 18.4845 7.94C18.3245 8.09333 18.1412 8.21333 17.9345 8.3C17.7345 8.38667 17.5279 8.43 17.3145 8.43C17.1012 8.43 16.8945 8.38667 16.6945 8.3C16.5012 8.21333 16.3279 8.09333 16.1745 7.94C16.0279 7.78667 15.9079 7.61 15.8145 7.41C15.7279 7.21 15.6845 6.99333 15.6845 6.76C15.6845 6.53333 15.7312 6.32 15.8245 6.12C15.9179 5.91333 16.0412 5.73333 16.1945 5.58C16.3479 5.42667 16.5212 5.30667 16.7145 5.22C16.9145 5.12667 17.1212 5.08 17.3345 5.08C17.5545 5.08 17.7645 5.12333 17.9645 5.21C18.1645 5.29667 18.3412 5.41667 18.4945 5.57C18.6545 5.72333 18.7812 5.90333 18.8745 6.11C18.9679 6.31 19.0145 6.52667 19.0145 6.76ZM23.8141 18.08C24.2007 18.08 24.5474 17.9667 24.8541 17.74C25.1607 17.5133 25.4207 17.21 25.6341 16.83C25.8474 16.4433 26.0107 15.9967 26.1241 15.49C26.2441 14.9833 26.3041 14.4467 26.3041 13.88C26.3041 13.08 26.1807 12.5033 25.9341 12.15C25.6874 11.79 25.3041 11.61 24.7841 11.61C24.4041 11.61 24.0574 11.7233 23.7441 11.95C23.4374 12.17 23.1774 12.47 22.9641 12.85C22.7507 13.23 22.5841 13.6767 22.4641 14.19C22.3507 14.6967 22.2941 15.2333 22.2941 15.8C22.2941 16.5867 22.4174 17.1633 22.6641 17.53C22.9107 17.8967 23.2941 18.08 23.8141 18.08ZM23.5741 20.15C23.0007 20.15 22.4674 20.0567 21.9741 19.87C21.4807 19.6767 21.0541 19.3967 20.6941 19.03C20.3341 18.6633 20.0507 18.21 19.8441 17.67C19.6441 17.13 19.5441 16.5133 19.5441 15.82C19.5441 14.92 19.6907 14.0867 19.9841 13.32C20.2774 12.5467 20.6741 11.88 21.1741 11.32C21.6741 10.76 22.2574 10.3233 22.9241 10.01C23.5907 9.69 24.2941 9.53 25.0341 9.53C25.6074 9.53 26.1374 9.62667 26.6241 9.82C27.1174 10.0067 27.5441 10.2867 27.9041 10.66C28.2641 11.0267 28.5474 11.48 28.7541 12.02C28.9607 12.56 29.0641 13.1767 29.0641 13.87C29.0641 14.7633 28.9174 15.5933 28.6241 16.36C28.3307 17.1267 27.9307 17.79 27.4241 18.35C26.9241 18.91 26.3407 19.35 25.6741 19.67C25.0141 19.99 24.3141 20.15 23.5741 20.15ZM39.7808 9.69L33.0308 22.77C32.8374 23.1433 32.5474 23.33 32.1608 23.33H30.1008L32.4208 19.15L29.8408 9.69H32.1608C32.3608 9.69 32.5108 9.74 32.6108 9.84C32.7108 9.94 32.7808 10.0567 32.8208 10.19L33.9108 15.12C33.9508 15.3 33.9841 15.48 34.0108 15.66C34.0374 15.84 34.0608 16.02 34.0808 16.2C34.1541 16.02 34.2308 15.84 34.3108 15.66C34.3974 15.4733 34.4841 15.29 34.5708 15.11L36.8208 10.18C36.8941 10.04 37.0008 9.92333 37.1408 9.83C37.2808 9.73667 37.4241 9.69 37.5708 9.69H39.7808Z" fill="white"/>
</svg>
